<svg xmlns="http://www.w3.org/2000/svg" viewBox="0 0 794.79 98.65"><defs><style>.cls-1,.cls-5{fill:#d1d3d4;}.cls-2,.cls-3,.cls-6{fill:#f37021;}.cls-3{stroke:#939598;stroke-width:0.25px;}.cls-3,.cls-5,.cls-6{stroke-miterlimit:10;}.cls-4{fill:#58595b;}.cls-5,.cls-6{stroke:#58595b;}.cls-6{stroke-width:0.5px;}</style></defs><title>Asset 4</title><g id="Layer_2" data-name="Layer 2"><g id="Layer_1-2" data-name="Layer 1"><rect class="cls-1" x="11.21" y="17.25" width="502.41" height="19.68"/><rect class="cls-2" x="495.9" y="59.36" width="276.33" height="21.53"/><path class="cls-3" d="M105.14,35.38V18.28a6,6,0,0,1,1.35-1.21h16.05l13.87,20.8h.6l13.8-20.8h15.9a6.48,6.48,0,0,1,1.5,1.21V50.46a8.07,8.07,0,0,1-.41,1.92,2.44,2.44,0,0,1-.68,1,2.83,2.83,0,0,1-.9.49,9.77,9.77,0,0,0-1,.37H150.35L136.79,74,123.07,54.22H108.15l-1.05-.37a2.7,2.7,0,0,1-.87-.49,2.46,2.46,0,0,1-.68-1,8,8,0,0,1-.41-1.88ZM123.68,80c-.11,0-.36.2-.76.45H107.4a2.56,2.56,0,0,1-1.43-.6,1.65,1.65,0,0,1-.83-1.28V60.4a1.46,1.46,0,0,1,.15-.49,4.12,4.12,0,0,1,.41-.71,3.07,3.07,0,0,1,.6-.64,1.06,1.06,0,0,1,.64-.27h15.45a1.54,1.54,0,0,1,.38.12,1.85,1.85,0,0,0,.38.11c.2.2.51.48.94.83s.61.55.56.6V78.79c0,.2-.16.43-.49.68S123.68,79.9,123.68,80Zm26,0c0-.1-.17-.28-.5-.53s-.48-.48-.48-.68V60c0-.05.18-.25.56-.6s.69-.63.94-.83a1.85,1.85,0,0,0,.38-.11,1.54,1.54,0,0,1,.38-.12h15.52a.86.86,0,0,1,.53.27,3.21,3.21,0,0,1,.56.64c.18.25.33.49.46.71a1.28,1.28,0,0,1,.18.49V78.57a1.66,1.66,0,0,1-.82,1.28,2.64,2.64,0,0,1-1.44.6H150.43Q149.83,80.08,149.68,80Z"/><path class="cls-3" d="M175,32.29a22,22,0,0,1,7.84-10.85,20.49,20.49,0,0,1,6.14-3.09,11.84,11.84,0,0,1,2.22-.71l2.68-.57h7.31a4.71,4.71,0,0,1,1.24.87,1.31,1.31,0,0,1,.49.79V36.21a10.23,10.23,0,0,1-2.79.91,1.64,1.64,0,0,0-.83.9,9.48,9.48,0,0,0-.6,1.51c0,.25-.1.49-.15.71a4.59,4.59,0,0,1-.23.72,13.89,13.89,0,0,0-.15,1.43c0,.71-.12,1.66-.22,2.87a3.44,3.44,0,0,0-.08.9v5.65a4.38,4.38,0,0,0,.08,1c.15,2.61.35,4.12.6,4.52a4,4,0,0,0,.38.64c.15.23.32.52.52.87a6.43,6.43,0,0,0,1.25,1.43,6,6,0,0,0,1.13.79,5.35,5.35,0,0,0,.79.38c.2.08.3.19.3.34V79.32c0,.1-.09.21-.26.34l-.57.38a5.75,5.75,0,0,1-.9.41H193a40.11,40.11,0,0,1-4-1,19.2,19.2,0,0,1-6.21-2.9A19.83,19.83,0,0,1,178,71.82a22.31,22.31,0,0,1-3-6.07,22,22,0,0,1-1.09-6.93c0-3.16,0-5.85,0-8.06s0-4.22,0-6,0-3,0-3.73,0-1.07,0-1.17v-.68A21.79,21.79,0,0,1,175,32.29ZM236,58.82a22.42,22.42,0,0,1-1.09,6.9,21.9,21.9,0,0,1-3.09,6.1,21,21,0,0,1-4.79,4.75,18.85,18.85,0,0,1-6.18,2.9c-1.31.35-2.27.6-2.9.75a7.83,7.83,0,0,1-1.17.23h-8.06a3,3,0,0,1-1-.41c-.5-.28-.76-.52-.76-.72V61.76a.37.37,0,0,1,.19-.38,4.23,4.23,0,0,1,.49-.15,5,5,0,0,0,.72-.26,3.43,3.43,0,0,0,.87-.64,7.72,7.72,0,0,0,1.16-1.55c.38-.62.69-1.11,1-1.47s.42-1.91.52-4.52a5.07,5.07,0,0,0,.08-1V46.16a3.94,3.94,0,0,0-.08-.9c0-1.16-.1-2.1-.15-2.83a5.8,5.8,0,0,0-.22-1.47c-.11-.45-.24-1-.42-1.66a6.08,6.08,0,0,0-.64-1.58.69.69,0,0,0-.49-.53,4.94,4.94,0,0,0-.9-.22q-.49-.07-1-.12a2,2,0,0,1-.83-.19.66.66,0,0,1-.23-.45V18.73a1.36,1.36,0,0,1,.49-.79,4.61,4.61,0,0,1,1.25-.87h7.31l2.67.57a12.15,12.15,0,0,1,2.23.71,21.85,21.85,0,0,1,10.81,7.88,23,23,0,0,1,3.13,6A21,21,0,0,1,236,39.15Z"/><path class="cls-3" d="M243.5,80.45a1.9,1.9,0,0,1-1.62-.75,3.05,3.05,0,0,1-.57-1.89V19.93A4.85,4.85,0,0,1,242.67,18a4.36,4.36,0,0,1,1.66-.91H265a7.23,7.23,0,0,1,1.73.3,3.39,3.39,0,0,1,1.36,1V78a7.81,7.81,0,0,1-1.21,1.55,4.75,4.75,0,0,1-1.73.94Zm60.06-2.86a3.14,3.14,0,0,1-.94,1.84,2.75,2.75,0,0,1-1.62,1H281.41a2.09,2.09,0,0,1-1.7-.68,2.38,2.38,0,0,1-.57-1.58V41.11A10.62,10.62,0,0,1,277.79,39a3.72,3.72,0,0,0-1.66-1.73,5.27,5.27,0,0,0-3-.83,3.23,3.23,0,0,1-1.29-.27q-.3-.18-.3-.33V18.35c0-.2.3-.44.91-.71a14.12,14.12,0,0,1,1.35-.57h8.29l2.42.49,2.41.49A20.91,20.91,0,0,1,293.65,21a23,23,0,0,1,5.28,4.82A22,22,0,0,1,302.39,32a19.5,19.5,0,0,1,1.25,6.83Z"/><path class="cls-3" d="M335.52,19.93V78.57a1.6,1.6,0,0,1-.8,1.31,2.53,2.53,0,0,1-1.47.57h-22.6a2.73,2.73,0,0,1-1.13-.41,1.2,1.2,0,0,1-.76-1V19.78a3,3,0,0,1,1.09-1.88,4,4,0,0,1,1.62-.83H333.1a2.9,2.9,0,0,1,1.55.94,3.49,3.49,0,0,1,.64,1.55Z"/><path class="cls-3" d="M342.45,80.45a1.89,1.89,0,0,1-1.62-.75,3.05,3.05,0,0,1-.57-1.89V19.93A4.75,4.75,0,0,1,341.62,18a4.36,4.36,0,0,1,1.66-.91h20.65a7.23,7.23,0,0,1,1.73.3,3.39,3.39,0,0,1,1.36,1V78a7.81,7.81,0,0,1-1.21,1.55,4.75,4.75,0,0,1-1.73.94Zm60.06-2.86a3.14,3.14,0,0,1-.94,1.84,2.75,2.75,0,0,1-1.62,1h-19.6a2.09,2.09,0,0,1-1.69-.68,2.38,2.38,0,0,1-.57-1.58V41.11A10.62,10.62,0,0,1,376.74,39a3.77,3.77,0,0,0-1.66-1.73,5.28,5.28,0,0,0-3-.83,3.17,3.17,0,0,1-1.28-.27q-.3-.18-.3-.33V18.35c0-.2.3-.44.91-.71a14.12,14.12,0,0,1,1.35-.57H381l2.41.49,2.42.49A20.91,20.91,0,0,1,392.6,21a23.16,23.16,0,0,1,5.28,4.82A22.28,22.28,0,0,1,401.34,32a19.5,19.5,0,0,1,1.25,6.83Z"/><path class="cls-3" d="M408.8,32.29a22,22,0,0,1,7.84-10.85,20.49,20.49,0,0,1,6.14-3.09,12.15,12.15,0,0,1,2.23-.71l2.67-.57H435a4.55,4.55,0,0,1,1.24.87,1.31,1.31,0,0,1,.49.79V36.21a10.07,10.07,0,0,1-2.78.91,1.61,1.61,0,0,0-.83.9,8.68,8.68,0,0,0-.61,1.51c-.05.25-.1.49-.15.71a4.5,4.5,0,0,1-.22.72,13.89,13.89,0,0,0-.15,1.43c-.05.71-.13,1.66-.23,2.87a4.06,4.06,0,0,0-.07.9v5.65a5.19,5.19,0,0,0,.07,1c.15,2.61.35,4.12.6,4.52a4.88,4.88,0,0,0,.38.64c.15.23.33.52.53.87A6.66,6.66,0,0,0,435.63,61a5.88,5.88,0,0,0,.79.38c.2.08.3.19.3.34V79.32c0,.1-.08.21-.26.34s-.36.25-.57.38a5.75,5.75,0,0,1-.9.41h-8.14a40.33,40.33,0,0,1-4-1,19.25,19.25,0,0,1-6.22-2.9,20,20,0,0,1-4.79-4.75,22.6,22.6,0,0,1-3.05-6.07,22,22,0,0,1-1.09-6.93q0-4.74,0-8.06c0-2.21,0-4.22,0-6s0-3,0-3.73,0-1.07,0-1.17v-.68A21.79,21.79,0,0,1,408.8,32.29Zm61.08,26.53a22.13,22.13,0,0,1-1.09,6.9,21.9,21.9,0,0,1-3.09,6.1,20.92,20.92,0,0,1-4.78,4.75,18.85,18.85,0,0,1-6.18,2.9q-2,.52-2.91.75a7.57,7.57,0,0,1-1.16.23H442.6a3,3,0,0,1-1-.41q-.75-.42-.75-.72V61.76c0-.2.06-.33.19-.38a3.7,3.7,0,0,1,.49-.15,4.55,4.55,0,0,0,.71-.26,3.11,3.11,0,0,0,.87-.64,8.13,8.13,0,0,0,1.17-1.55c.38-.62.69-1.11.94-1.47s.43-1.91.53-4.52a5.19,5.19,0,0,0,.07-1V46.16a4.06,4.06,0,0,0-.07-.9c0-1.16-.1-2.1-.15-2.83a5.67,5.67,0,0,0-.23-1.47c-.1-.45-.24-1-.41-1.66a6.08,6.08,0,0,0-.64-1.58.71.71,0,0,0-.49-.53,4.85,4.85,0,0,0-.91-.22q-.49-.07-1-.12a1.94,1.94,0,0,1-.82-.19.62.62,0,0,1-.23-.45V18.73a1.31,1.31,0,0,1,.49-.79,4.55,4.55,0,0,1,1.24-.87h7.31l2.68.57a11.84,11.84,0,0,1,2.22.71,21.53,21.53,0,0,1,6,3.09,21.76,21.76,0,0,1,4.79,4.79,22.7,22.7,0,0,1,3.12,6,20.79,20.79,0,0,1,1.13,6.89Z"/><path class="cls-4" d="M479.18,35.85V20.18a2.2,2.2,0,0,1,.38-1.21c.25-.4.57-.88,1-1.43h37.53a10.47,10.47,0,0,0,1.13,1.39.72.72,0,0,1,.3.49V79a1.53,1.53,0,0,1-1,1.4,4,4,0,0,1-1.62.49h-20.5a1.78,1.78,0,0,1-1.35-.68,2.1,2.1,0,0,1-.61-1.43V39.7a2.85,2.85,0,0,0-.19-.8,2.59,2.59,0,0,0-1-1.16H480.31q-.37,0-.75-.57A2.25,2.25,0,0,1,479.18,35.85Zm44.09,1.81c-.51,0-.76-.27-.76-.68V19.12c0-.2.53-.73,1.59-1.58L535,17.46a2,2,0,0,1,1.28.64,1.89,1.89,0,0,1,.68,1.4V36.08a2.2,2.2,0,0,1-1.28,1.47,4.54,4.54,0,0,1-1.43.34H523.94A2.2,2.2,0,0,1,523.27,37.66Z"/><path class="cls-4" d="M544.25,32.76a21.94,21.94,0,0,1,3.09-6.06,22.24,22.24,0,0,1,4.75-4.79,20.61,20.61,0,0,1,6.14-3.09,13.11,13.11,0,0,1,2.23-.72c.63-.12,1.52-.31,2.67-.56h7.31a4.77,4.77,0,0,1,1.25.87,1.36,1.36,0,0,1,.49.79V36.68a10.59,10.59,0,0,1-2.79.91,1.64,1.64,0,0,0-.83.9A9.48,9.48,0,0,0,568,40c-.05.25-.11.49-.15.71a6,6,0,0,1-.23.72,13.89,13.89,0,0,0-.15,1.43c0,.71-.13,1.66-.23,2.86a4.22,4.22,0,0,0-.07.91v5.65a5.26,5.26,0,0,0,.07,1c.15,2.61.35,4.12.61,4.52a5.47,5.47,0,0,0,.37.64c.15.23.33.52.53.87A6.68,6.68,0,0,0,570,60.72a7,7,0,0,0,1.92,1.17c.2.08.31.19.31.34V79.79c0,.1-.09.21-.27.34s-.36.25-.56.37a5,5,0,0,1-.91.42H562.3a40.33,40.33,0,0,1-4-1,19.35,19.35,0,0,1-6.22-2.9,20,20,0,0,1-4.78-4.75,22.48,22.48,0,0,1-3.06-6.07,22.24,22.24,0,0,1-1.09-6.93c0-3.17,0-5.85,0-8.06s0-4.22,0-6,0-3.05,0-3.73,0-1.07,0-1.17v-.68A22,22,0,0,1,544.25,32.76Zm61.09,26.53a22.14,22.14,0,0,1-1.1,6.9,21.9,21.9,0,0,1-3.09,6.1A20.92,20.92,0,0,1,596.37,77a18.85,18.85,0,0,1-6.18,2.9c-1.31.35-2.28.6-2.9.75a7.83,7.83,0,0,1-1.17.23h-8.07a3,3,0,0,1-1-.42c-.5-.27-.75-.51-.75-.71V62.23c0-.2.06-.33.19-.38a3.7,3.7,0,0,1,.49-.15,5,5,0,0,0,.72-.26,3.23,3.23,0,0,0,.86-.64,8.13,8.13,0,0,0,1.17-1.55c.38-.63.69-1.12.94-1.47s.43-1.91.53-4.52a5.14,5.14,0,0,0,.08-1V46.63a4.1,4.1,0,0,0-.08-.91q-.08-1.72-.15-2.82a5.67,5.67,0,0,0-.23-1.47c-.1-.45-.24-1-.41-1.66a6.08,6.08,0,0,0-.64-1.58.71.71,0,0,0-.49-.53,4.85,4.85,0,0,0-.91-.22c-.32,0-.66-.09-1-.12a2,2,0,0,1-.83-.19.66.66,0,0,1-.23-.45V19.2a1.31,1.31,0,0,1,.49-.79,4.71,4.71,0,0,1,1.24-.87h7.31c1.16.25,2,.44,2.68.56a12.77,12.77,0,0,1,2.22.72,21.81,21.81,0,0,1,10.82,7.88,23.13,23.13,0,0,1,3.13,6,21.15,21.15,0,0,1,1.13,6.9Z"/><path class="cls-4" d="M612.53,32.76a22,22,0,0,1,7.84-10.85,20.49,20.49,0,0,1,6.14-3.09,12.77,12.77,0,0,1,2.22-.72c.63-.12,1.52-.31,2.68-.56h7.31a4.55,4.55,0,0,1,1.24.87,1.31,1.31,0,0,1,.49.79V36.68a10.36,10.36,0,0,1-2.79.91,1.63,1.63,0,0,0-.82.9,8.68,8.68,0,0,0-.61,1.51c-.05.25-.1.49-.15.71a4.5,4.5,0,0,1-.22.72,13.05,13.05,0,0,0-.16,1.43c-.05.71-.12,1.66-.22,2.86a4.1,4.1,0,0,0-.08.91v5.65a5.14,5.14,0,0,0,.08,1c.15,2.61.35,4.12.6,4.52a5.63,5.63,0,0,0,.38.64c.15.23.32.52.53.87a6.41,6.41,0,0,0,1.24,1.43,7,7,0,0,0,1.13.79,7.45,7.45,0,0,0,.79.38c.2.08.3.19.3.34V79.79c0,.1-.09.21-.26.34l-.57.37a4.86,4.86,0,0,1-.9.42h-8.14a40.33,40.33,0,0,1-4-1,19.25,19.25,0,0,1-6.22-2.9,20,20,0,0,1-4.79-4.75,22.75,22.75,0,0,1-3.05-6.07,22,22,0,0,1-1.09-6.93c0-3.17,0-5.85,0-8.06s0-4.22,0-6,0-3.05,0-3.73,0-1.07,0-1.17v-.68A21.74,21.74,0,0,1,612.53,32.76Zm61.08,26.53a22.13,22.13,0,0,1-1.09,6.9,21.9,21.9,0,0,1-3.09,6.1A21,21,0,0,1,664.64,77a18.85,18.85,0,0,1-6.18,2.9c-1.3.35-2.27.6-2.9.75a7.6,7.6,0,0,1-1.17.23h-8.06a2.91,2.91,0,0,1-1-.42c-.5-.27-.75-.51-.75-.71V62.23c0-.2.06-.33.19-.38a3.28,3.28,0,0,1,.49-.15,4.55,4.55,0,0,0,.71-.26,3.11,3.11,0,0,0,.87-.64A8.13,8.13,0,0,0,648,59.25c.37-.63.69-1.12.94-1.47s.42-1.91.53-4.52a5.26,5.26,0,0,0,.07-1V46.63a4.22,4.22,0,0,0-.07-.91c0-1.15-.11-2.09-.15-2.82a6.15,6.15,0,0,0-.23-1.47c-.1-.45-.24-1-.42-1.66a5.75,5.75,0,0,0-.64-1.58.69.69,0,0,0-.49-.53,4.56,4.56,0,0,0-.9-.22q-.49-.07-1-.12a2,2,0,0,1-.83-.19.64.64,0,0,1-.22-.45V19.2a1.31,1.31,0,0,1,.49-.79,4.55,4.55,0,0,1,1.24-.87h7.31c1.16.25,2.05.44,2.68.56a13.33,13.33,0,0,1,2.22.72,21.73,21.73,0,0,1,10.81,7.88,22.83,22.83,0,0,1,3.13,6,21.15,21.15,0,0,1,1.13,6.9Z"/><path class="cls-4" d="M680.81,18.9a6.2,6.2,0,0,1,1.39-1.36h17.19a8.67,8.67,0,0,1,1.73,1.24,7.39,7.39,0,0,1,1.43,1.62V80.24c0,.15-.21.3-.64.45a5.85,5.85,0,0,1-.72.23H681.6a1.79,1.79,0,0,1-1.24-.64,1.81,1.81,0,0,1-.64-1.25V21.16A8.34,8.34,0,0,1,680.81,18.9ZM707,80.2c-.43-.22-.64-.44-.64-.64V61.25a.76.76,0,0,1,.41-.64,3.81,3.81,0,0,1,1-.42,9.3,9.3,0,0,1,1.1-.22c.35,0,.57-.08.67-.08h13.79a3.87,3.87,0,0,1,2.3.61,2.13,2.13,0,0,1,.87,1.88V79.56a.77.77,0,0,1-.34.64,2.6,2.6,0,0,1-.79.42,5.84,5.84,0,0,1-.94.22,5.65,5.65,0,0,1-.79.08H708.73a1.85,1.85,0,0,1-.38-.11,1.36,1.36,0,0,0-.45-.12Z"/><path class="cls-4" d="M767.36,54.09l-.83-.83h-21.4c-.91-.6-1.88-1.2-2.94-1.81s-2-1.2-2.94-1.81a12.18,12.18,0,0,1-2.49-2.45,20.4,20.4,0,0,1-2.11-3.35,25,25,0,0,1-1.47-3.62,11.36,11.36,0,0,1-.56-3.31,17.87,17.87,0,0,1,3.09-9.27A20.9,20.9,0,0,1,743.25,21c1-.46,2.1-.93,3.46-1.44.65-.25,1.28-.47,1.89-.67a17.84,17.84,0,0,1,2-.53c.7-.15,1.5-.29,2.41-.42l3.24-.41h5.5V44.67h18a13.44,13.44,0,0,1,4.75,1.62,24.91,24.91,0,0,1,4.93,3.43,21.77,21.77,0,0,1,3.85,4.37,8.13,8.13,0,0,1,1.54,4.45V65c-.1.4-.19.78-.26,1.13s-.14.73-.19,1.13-.23,1.08-.53,2.18a9.44,9.44,0,0,1-1.28,2.87,12,12,0,0,1-5.2,4.48,52.32,52.32,0,0,1-7.16,2.6c-1.46.4-2.91.75-4.37,1.06a22.35,22.35,0,0,1-4.52.45h-1.36a3.15,3.15,0,0,1-.45,0c-.2,0-.43-.06-.68-.11a2.64,2.64,0,0,1-1.17-.64,1.07,1.07,0,0,1-.26-.57Zm-34.74,5.27a3.15,3.15,0,0,1,.07-.6c0-.25.12-.51.19-.79a2.28,2.28,0,0,1,.34-.72.66.66,0,0,1,.53-.3H755.6a1.38,1.38,0,0,1,1.13.38,6.63,6.63,0,0,1,.68,1.13,8,8,0,0,0,2,2.41,3.86,3.86,0,0,0,1.4.57q.86.18,1.62.3c.5.07.91.15,1.24.23s.42.18.26.33V79.79c0,.1-.08.21-.26.34s-.38.25-.6.37-.43.23-.61.31a1.3,1.3,0,0,1-.33.11h-8.82l-1.17-.11a22.45,22.45,0,0,1-3.13-.72,20.62,20.62,0,0,1-6.63-2.94,22,22,0,0,1-5.16-4.82,22.9,22.9,0,0,1-3.36-6.11A20,20,0,0,1,732.62,59.36Zm32.25-41.82h8a22.28,22.28,0,0,1,4.3,1.36,30.23,30.23,0,0,1,4.26,2,17.92,17.92,0,0,1,2.6,1.88,24.36,24.36,0,0,1,3.46,3.2A17,17,0,0,1,790,29.45,9.43,9.43,0,0,1,791,31a10.9,10.9,0,0,1,.49,1.32v7.84H772.71a10.24,10.24,0,0,0-2-3.17,9.87,9.87,0,0,0-2-1.43,2.77,2.77,0,0,0-1.1-.41l-1.24-.23a4.18,4.18,0,0,1-1-.34.77.77,0,0,1-.46-.75Z"/><path class="cls-5" d="M1,53.39,5.06,56.3A7.9,7.9,0,0,0,2.42,41.24c1.25-7.18,8.13-19.69,8.13-19.69l1.74-3.35.6,4.53a7.89,7.89,0,0,0,9-12.29c5.55-3.92,19-8.14,19-8.14L44.49,1,42.08,4.46a7.9,7.9,0,0,0,7.39,5.18,7.93,7.93,0,0,0,7.89-7.3c7.24,1.2,20.45,8.38,20.45,8.38l3.42,1.6-5.63,1a7.9,7.9,0,0,0,12.61,8.21c4.15,5.75,8.54,20.14,8.54,20.14l1,3.63L93.74,42a7.91,7.91,0,0,0,2.89,15c-1.16,7.29-8,20.16-8,20.16l-1.89,3.27-.42-4.84a7.9,7.9,0,0,0-8.94,12.6c-5.54,4-19.14,8.41-19.14,8.41l-3.62,1.1,2.36-3a7.89,7.89,0,0,0-15.38,1.84c-7.38-1.23-20.69-8.63-20.69-8.63L17.62,86l5.55-.49A7.92,7.92,0,0,0,10.44,77C6.33,71.14,2.25,57,2.25,57Z"/><path class="cls-6" d="M16.25,41.08V31.57A3.41,3.41,0,0,1,17,30.9h8.92l7.71,11.56H34L41.63,30.9h8.84a3.76,3.76,0,0,1,.83.67V49.46a3.86,3.86,0,0,1-.23,1.06,1.33,1.33,0,0,1-.37.55,1.67,1.67,0,0,1-.51.27l-.56.21H41.38l-7.54,11-7.62-11H17.93l-.59-.21a1.64,1.64,0,0,1-.48-.27,1.36,1.36,0,0,1-.38-.57,4.66,4.66,0,0,1-.23-1Zm10.3,24.79-.42.25H17.51a1.45,1.45,0,0,1-.8-.33.9.9,0,0,1-.46-.71V55a1,1,0,0,1,.08-.27,4.42,4.42,0,0,1,.23-.4A1.62,1.62,0,0,1,16.9,54a.59.59,0,0,1,.36-.15h8.58l.21.06a.67.67,0,0,0,.21.07c.11.11.29.26.52.46s.34.3.32.33V65.2c0,.11-.09.24-.27.38S26.55,65.82,26.55,65.87Zm14.45,0c0-.05-.09-.15-.27-.29s-.27-.27-.27-.38V54.73s.1-.14.31-.33.38-.35.52-.46a.67.67,0,0,0,.21-.07l.21-.06h8.63a.48.48,0,0,1,.29.15,1.8,1.8,0,0,1,.32.35c.1.14.18.28.25.4a.69.69,0,0,1,.1.27v10.1a.9.9,0,0,1-.46.71,1.43,1.43,0,0,1-.79.33H41.42Z"/><path class="cls-6" d="M53.86,41.08V32.37a1.25,1.25,0,0,1,.21-.67c.14-.22.32-.49.54-.8H75.47a5.83,5.83,0,0,0,.63.78.39.39,0,0,1,.16.27V65.08a.83.83,0,0,1-.56.77,2.29,2.29,0,0,1-.9.27H63.41a1,1,0,0,1-.76-.37,1.2,1.2,0,0,1-.33-.8V43.22a1.69,1.69,0,0,0-.11-.44,1.47,1.47,0,0,0-.56-.65H54.49c-.14,0-.28-.11-.42-.32A1.28,1.28,0,0,1,53.86,41.08Zm24.5,1c-.28,0-.42-.15-.42-.37V31.78c0-.11.29-.4.88-.88l6.07,0a1.08,1.08,0,0,1,.71.36A1,1,0,0,1,86,32V41.2a1.21,1.21,0,0,1-.71.82,2.36,2.36,0,0,1-.8.19H78.74A1.28,1.28,0,0,1,78.36,42.08Z"/></g></g></svg>