<svg xmlns="http://www.w3.org/2000/svg" viewBox="0 0 293.66 102.89"><defs><style>.cls-1,.cls-3{fill:#d1d3d4;}.cls-2,.cls-4,.cls-5{fill:#f37021;}.cls-3{stroke:#fff;}.cls-3,.cls-4,.cls-5{stroke-miterlimit:10;}.cls-4{stroke:#939598;stroke-width:0.25px;}.cls-5{stroke:#58595b;stroke-width:0.5px;}</style></defs><title>Asset 5</title><g id="Layer_2" data-name="Layer 2"><g id="Layer_1-2" data-name="Layer 1"><rect class="cls-1" x="37.84" y="19" width="244.44" height="9.57"/><rect class="cls-2" x="37.55" y="76.59" width="244.44" height="10.48"/><path class="cls-3" d="M1,55.68l4.24,3a8.24,8.24,0,0,0,4.81-7.49A8.28,8.28,0,0,0,2.48,43C3.78,35.51,11,22.45,11,22.45L12.79,19l.62,4.74a8.24,8.24,0,0,0,9.42-12.84c5.79-4.09,19.86-8.49,19.86-8.49L46.4,1l-2.52,3.6A8.23,8.23,0,0,0,51.59,10,8.27,8.27,0,0,0,59.83,2.4c7.56,1.25,21.34,8.75,21.34,8.75l3.58,1.67-5.88,1A8.24,8.24,0,0,0,92,22.42c4.33,6,8.91,21,8.91,21L102,47.23l-4.22-3.42a8.25,8.25,0,0,0,3,15.67c-1.22,7.6-8.37,21-8.37,21l-2,3.41L90,78.88A8.25,8.25,0,0,0,80.7,92c-5.78,4.16-20,8.77-20,8.77L57,102l2.46-3.14a8.24,8.24,0,0,0-16.06,1.92c-7.69-1.28-21.59-9-21.59-9l-3.41-2,5.79-.51a8.26,8.26,0,0,0-13.28-8.95C6.56,74.21,2.3,59.4,2.3,59.4Z"/><path class="cls-4" d="M113.22,27.83V19.5c0-.05.22-.24.66-.58h7.81L128.44,29h.29l6.71-10.11h7.74c.49.34.73.53.73.58V35.16a3.55,3.55,0,0,1-.2.93,1.17,1.17,0,0,1-.77.72l-.49.18h-7.23l-6.6,9.64L122,37h-7.26l-.51-.18a1.42,1.42,0,0,1-.43-.24,1.24,1.24,0,0,1-.33-.49,4.61,4.61,0,0,1-.2-.92Zm9,21.7-.36.22h-7.56a1.27,1.27,0,0,1-.69-.29.83.83,0,0,1-.41-.63V40a.72.72,0,0,1,.08-.24,1.78,1.78,0,0,1,.49-.66.49.49,0,0,1,.31-.13h7.52l.18.06.19,0a5.67,5.67,0,0,0,.45.4c.21.18.3.27.28.3v9.16q0,.15-.24.33C122.32,49.4,122.24,49.48,122.24,49.53Zm12.65,0c0-.05-.08-.13-.24-.26s-.23-.23-.23-.33V39.78s.09-.12.27-.3.34-.3.46-.4l.18,0,.19-.06h7.55a.42.42,0,0,1,.26.13,2.66,2.66,0,0,1,.49.66.6.6,0,0,1,.09.24v8.83a.81.81,0,0,1-.4.63,1.29,1.29,0,0,1-.7.29h-7.55Z"/><path class="cls-4" d="M147.19,26.32a10.83,10.83,0,0,1,1.51-2.95A10.42,10.42,0,0,1,151,21a9.83,9.83,0,0,1,3-1.5,6.11,6.11,0,0,1,1.09-.35l1.3-.27h3.55a2.19,2.19,0,0,1,.61.42c.16.16.24.28.24.38v8.51a5.26,5.26,0,0,1-1.36.44.76.76,0,0,0-.4.44,4.5,4.5,0,0,0-.3.73c0,.12-.05.24-.07.35a1.75,1.75,0,0,1-.11.35,6.78,6.78,0,0,0-.07.7c0,.34-.06.8-.11,1.39a1.63,1.63,0,0,0,0,.44v2.75a2.21,2.21,0,0,0,0,.48,7.44,7.44,0,0,0,.29,2.19,3.58,3.58,0,0,0,.18.32c.08.11.16.25.26.42a3.6,3.6,0,0,0,.61.7,3.44,3.44,0,0,0,.55.38,1.77,1.77,0,0,0,.38.18c.1,0,.15.09.15.17V49.2s-.05.11-.13.17l-.28.18a2.09,2.09,0,0,1-.44.2h-4a18.94,18.94,0,0,1-1.94-.48,9.18,9.18,0,0,1-3-1.41,9.3,9.3,0,0,1-2.33-2.31,10.82,10.82,0,0,1-2-6.32c0-1.54,0-2.85,0-3.92s0-2.06,0-2.94,0-1.48,0-1.81,0-.52,0-.57v-.33A10.76,10.76,0,0,1,147.19,26.32Zm29.72,12.91a10.85,10.85,0,0,1-2,6.32,10,10,0,0,1-2.33,2.31,9.13,9.13,0,0,1-3,1.41c-.64.18-1.11.3-1.41.37a4.34,4.34,0,0,1-.57.11h-3.92a1.43,1.43,0,0,1-.48-.2c-.24-.13-.37-.25-.37-.35V40.66c0-.1,0-.16.1-.19l.23-.07a1.71,1.71,0,0,0,.35-.13,1.26,1.26,0,0,0,.42-.31,3.34,3.34,0,0,0,.57-.75c.19-.31.34-.54.46-.72a7.21,7.21,0,0,0,.26-2.19,3.23,3.23,0,0,0,0-.48V33.07a2.36,2.36,0,0,0,0-.44c0-.56-.05-1-.08-1.38a2.52,2.52,0,0,0-.11-.71c-.05-.22-.11-.49-.2-.81a2.8,2.8,0,0,0-.31-.77.31.31,0,0,0-.24-.25,1.89,1.89,0,0,0-.44-.11,3.86,3.86,0,0,0-.49-.06,1.08,1.08,0,0,1-.41-.09.33.33,0,0,1-.11-.22V19.72c0-.1.08-.22.24-.38a2.19,2.19,0,0,1,.61-.42h3.55l1.31.27a6.3,6.3,0,0,1,1.08.35,10.29,10.29,0,0,1,2.93,1.5,10.73,10.73,0,0,1,2.33,2.33,11.17,11.17,0,0,1,1.52,2.93,10.2,10.2,0,0,1,.55,3.36Z"/><path class="cls-4" d="M180.54,49.75a.92.92,0,0,1-.79-.37,1.49,1.49,0,0,1-.27-.91V20.31a2.3,2.3,0,0,1,.66-.95,2.13,2.13,0,0,1,.8-.44H191a3.48,3.48,0,0,1,.84.14,1.63,1.63,0,0,1,.66.48v29a3.49,3.49,0,0,1-.58.75,2.19,2.19,0,0,1-.85.46Zm29.22-1.39a1.56,1.56,0,0,1-.46.9,1.32,1.32,0,0,1-.78.49H199a1,1,0,0,1-.82-.33,1.14,1.14,0,0,1-.28-.77v-18a5.61,5.61,0,0,1-.66-1,1.75,1.75,0,0,0-.8-.85,2.58,2.58,0,0,0-1.47-.4,1.65,1.65,0,0,1-.62-.13c-.1-.06-.15-.12-.15-.16V19.54c0-.1.15-.21.44-.35a5.44,5.44,0,0,1,.66-.27h4l1.18.23c.29.07.68.14,1.17.24a10.39,10.39,0,0,1,3.28,1.43,11.09,11.09,0,0,1,2.57,2.35,10.61,10.61,0,0,1,1.68,3,9.29,9.29,0,0,1,.61,3.32Z"/><path class="cls-4" d="M225.31,20.31V48.83a.8.8,0,0,1-.39.65,1.24,1.24,0,0,1-.71.27h-11a1.37,1.37,0,0,1-.55-.2.57.57,0,0,1-.37-.5V20.24a1.48,1.48,0,0,1,.53-.92,1.84,1.84,0,0,1,.79-.4h10.53a1.39,1.39,0,0,1,.75.45,1.68,1.68,0,0,1,.31.76Z"/><path class="cls-4" d="M228.68,49.75a.93.93,0,0,1-.79-.37,1.49,1.49,0,0,1-.27-.91V20.31a2.3,2.3,0,0,1,.66-.95,2.21,2.21,0,0,1,.8-.44h10a3.48,3.48,0,0,1,.84.14,1.63,1.63,0,0,1,.66.48v29a3.49,3.49,0,0,1-.58.75,2.19,2.19,0,0,1-.85.46Zm29.22-1.39a1.54,1.54,0,0,1-.45.9,1.37,1.37,0,0,1-.79.49h-9.54a1,1,0,0,1-.82-.33,1.2,1.2,0,0,1-.28-.77v-18a5.61,5.61,0,0,1-.66-1,1.75,1.75,0,0,0-.8-.85,2.58,2.58,0,0,0-1.47-.4,1.65,1.65,0,0,1-.62-.13c-.1-.06-.15-.12-.15-.16V19.54c0-.1.15-.21.44-.35a5.44,5.44,0,0,1,.66-.27h4l1.18.23c.29.07.68.14,1.17.24a10.39,10.39,0,0,1,3.28,1.43,11.09,11.09,0,0,1,2.57,2.35,10.89,10.89,0,0,1,1.69,3,9.5,9.5,0,0,1,.6,3.32Z"/><path class="cls-4" d="M261,26.32a10.53,10.53,0,0,1,1.5-2.95A10.86,10.86,0,0,1,264.78,21a9.88,9.88,0,0,1,3-1.5,5.79,5.79,0,0,1,1.08-.35l1.3-.27h3.56a2.28,2.28,0,0,1,.6.42c.16.16.24.28.24.38v8.51a5.26,5.26,0,0,1-1.36.44.8.8,0,0,0-.4.44,4.43,4.43,0,0,0-.29.73c0,.12-.05.24-.08.35a1.75,1.75,0,0,1-.11.35,6.78,6.78,0,0,0-.07.7c0,.34-.06.8-.11,1.39a1.63,1.63,0,0,0,0,.44v2.75a2.21,2.21,0,0,0,0,.48,7.44,7.44,0,0,0,.29,2.19,2.23,2.23,0,0,0,.19.32c.07.11.16.25.25.42a3.6,3.6,0,0,0,.61.7,4,4,0,0,0,.55.38,2.37,2.37,0,0,0,.38.18c.1,0,.15.09.15.17V49.2s0,.11-.13.17l-.27.18a2.72,2.72,0,0,1-.44.2h-4a18.74,18.74,0,0,1-1.95-.48,9.18,9.18,0,0,1-3-1.41,9.47,9.47,0,0,1-2.33-2.31,11,11,0,0,1-2-6.32c0-1.54,0-2.85,0-3.92s0-2.06,0-2.94,0-1.48,0-1.81,0-.52,0-.57v-.33A10.48,10.48,0,0,1,261,26.32Zm29.71,12.91a10.53,10.53,0,0,1-.53,3.35,10.38,10.38,0,0,1-1.5,3,10,10,0,0,1-2.33,2.31,9,9,0,0,1-3,1.41c-.63.18-1.1.3-1.41.37a3.8,3.8,0,0,1-.57.11h-3.92a1.61,1.61,0,0,1-.48-.2c-.24-.13-.36-.25-.36-.35V40.66a.19.19,0,0,1,.09-.19l.24-.07a1.9,1.9,0,0,0,.34-.13,1.4,1.4,0,0,0,.43-.31,3.66,3.66,0,0,0,.56-.75c.19-.31.34-.54.46-.72A7.21,7.21,0,0,0,279,36.3a3.08,3.08,0,0,0,0-.48V33.07a2.19,2.19,0,0,0,0-.44c0-.56-.05-1-.07-1.38a3.61,3.61,0,0,0-.11-.71q-.07-.33-.21-.81a2.52,2.52,0,0,0-.31-.77.31.31,0,0,0-.23-.25,2.12,2.12,0,0,0-.45-.11,3.65,3.65,0,0,0-.49-.06,1,1,0,0,1-.4-.09.29.29,0,0,1-.11-.22V19.72c0-.1.08-.22.24-.38a2.13,2.13,0,0,1,.6-.42H281l1.3.27a6.3,6.3,0,0,1,1.08.35,10.29,10.29,0,0,1,2.93,1.5,10.51,10.51,0,0,1,2.33,2.33,10.88,10.88,0,0,1,1.52,2.93,10.2,10.2,0,0,1,.55,3.36Z"/><path class="cls-5" d="M16.92,42.83V32.91c0-.06.26-.29.79-.7H27l8,12.07h.35l8-12.07h9.22a3.61,3.61,0,0,1,.88.7V51.58a4.7,4.7,0,0,1-.24,1.11,1.48,1.48,0,0,1-.4.57,1.39,1.39,0,0,1-.52.28,5.37,5.37,0,0,0-.59.22H43.15l-7.87,11.5-8-11.5H18.67l-.61-.22a1.43,1.43,0,0,1-.51-.28,1.38,1.38,0,0,1-.39-.59,5,5,0,0,1-.24-1.09ZM27.67,68.71l-.43.26h-9a1.5,1.5,0,0,1-.83-.34,1,1,0,0,1-.48-.75V57.35a.81.81,0,0,1,.09-.29,1.61,1.61,0,0,1,.24-.41,1.55,1.55,0,0,1,.35-.37.57.57,0,0,1,.37-.16h9a.78.78,0,0,1,.22.07l.22.06a5.1,5.1,0,0,0,.54.48c.25.21.36.33.33.35V68c0,.12-.09.25-.28.4S27.67,68.65,27.67,68.71Zm15.08,0c0-.06-.09-.16-.28-.3s-.28-.28-.28-.4V57.08a1.75,1.75,0,0,1,.32-.35c.22-.2.4-.36.55-.48l.22-.06a.7.7,0,0,1,.22-.07h9a.49.49,0,0,1,.31.16,2.46,2.46,0,0,1,.33.37,3.93,3.93,0,0,1,.26.41.76.76,0,0,1,.11.29V67.88a1,1,0,0,1-.48.75,1.5,1.5,0,0,1-.83.34h-9Z"/><path class="cls-5" d="M56.17,42.83V33.74a1.4,1.4,0,0,1,.22-.7c.15-.23.34-.51.57-.83H78.73a5.63,5.63,0,0,0,.66.81.43.43,0,0,1,.17.28V67.88a.89.89,0,0,1-.59.81A2.32,2.32,0,0,1,78,69H66.14a1.06,1.06,0,0,1-.79-.39,1.25,1.25,0,0,1-.35-.83V45.06a1.56,1.56,0,0,0-.11-.46,1.52,1.52,0,0,0-.59-.67H56.83c-.15,0-.29-.11-.44-.33A1.39,1.39,0,0,1,56.17,42.83Zm25.58,1.05c-.3,0-.44-.16-.44-.39V33.13c0-.12.31-.42.92-.92l6.34,0a1.34,1.34,0,0,1,1.13,1.18V43a1.25,1.25,0,0,1-.74.86,2.55,2.55,0,0,1-.83.19h-6A1.12,1.12,0,0,1,81.75,43.88Z"/><path class="cls-1" d="M113.24,61.31v-9a1.25,1.25,0,0,1,.22-.69c.14-.23.33-.5.56-.82h21.45a5.52,5.52,0,0,0,.65.8.43.43,0,0,1,.17.28V86a.88.88,0,0,1-.58.8,2.45,2.45,0,0,1-.93.28H123.06a1,1,0,0,1-.77-.39,1.23,1.23,0,0,1-.35-.82V63.51a1.61,1.61,0,0,0-.1-.45,1.5,1.5,0,0,0-.58-.67h-7.37c-.15,0-.29-.11-.43-.32A1.31,1.31,0,0,1,113.24,61.31Zm25.2,1c-.28,0-.43-.16-.43-.39V51.75c0-.11.31-.42.91-.91l6.24,0a1.11,1.11,0,0,1,.74.37,1.07,1.07,0,0,1,.39.79v9.48a1.26,1.26,0,0,1-.74.84,2.51,2.51,0,0,1-.82.2h-5.9A1.41,1.41,0,0,1,138.44,62.35Z"/><path class="cls-1" d="M150.44,59.55a12.62,12.62,0,0,1,4.48-6.21,11.81,11.81,0,0,1,3.51-1.76,7.3,7.3,0,0,1,1.27-.41l1.53-.33h4.18a2.63,2.63,0,0,1,.71.5.77.77,0,0,1,.28.45v10a5.83,5.83,0,0,1-1.59.51.94.94,0,0,0-.47.52,5.55,5.55,0,0,0-.35.86c0,.15-.06.28-.08.41a3.84,3.84,0,0,1-.13.41,7.9,7.9,0,0,0-.09.82c0,.4-.07,1-.13,1.64a2.16,2.16,0,0,0,0,.51V70.7a2.86,2.86,0,0,0,0,.56,8.7,8.7,0,0,0,.35,2.59,2.42,2.42,0,0,0,.21.37,5.6,5.6,0,0,1,.3.49,3.71,3.71,0,0,0,.71.82,4.3,4.3,0,0,0,.65.45l.45.22c.12,0,.17.11.17.19v10c0,.06-.05.12-.15.19a3.62,3.62,0,0,1-.32.22,3.84,3.84,0,0,1-.52.24h-4.65c-.14,0-.9-.19-2.28-.56a11.16,11.16,0,0,1-3.56-1.66,11.38,11.38,0,0,1-2.73-2.72,12.86,12.86,0,0,1-1.75-3.47,12.72,12.72,0,0,1-.62-4c0-1.81,0-3.34,0-4.61s0-2.41,0-3.44,0-1.75,0-2.14,0-.61,0-.67v-.38A12.61,12.61,0,0,1,150.44,59.55Zm34.92,15.16a12.5,12.5,0,0,1-.63,3.94A12.32,12.32,0,0,1,183,82.14a11.79,11.79,0,0,1-2.74,2.72,10.9,10.9,0,0,1-3.53,1.66L175,87a5.19,5.19,0,0,1-.67.13h-4.61a1.75,1.75,0,0,1-.56-.24c-.28-.16-.43-.3-.43-.41v-10c0-.11,0-.19.11-.21l.28-.09a2.65,2.65,0,0,0,.41-.15,1.54,1.54,0,0,0,.49-.37,4,4,0,0,0,.67-.88q.33-.54.54-.84a8.43,8.43,0,0,0,.3-2.59,2.75,2.75,0,0,0,.05-.56V67.47a2.05,2.05,0,0,0-.05-.51c0-.66,0-1.2-.08-1.62a3.85,3.85,0,0,0-.13-.84c-.06-.26-.14-.57-.24-1a3.17,3.17,0,0,0-.37-.9.4.4,0,0,0-.28-.3,2.54,2.54,0,0,0-.51-.13l-.58-.07a1.38,1.38,0,0,1-.48-.1.43.43,0,0,1-.13-.26v-10c0-.11.1-.26.28-.45a3,3,0,0,1,.71-.5h4.18l1.53.33a7,7,0,0,1,1.27.41,12.23,12.23,0,0,1,3.45,1.76,12.45,12.45,0,0,1,2.73,2.74,12.86,12.86,0,0,1,1.79,3.45,12,12,0,0,1,.65,3.94Z"/><path class="cls-1" d="M189.47,59.55A12.62,12.62,0,0,1,194,53.34a11.81,11.81,0,0,1,3.51-1.76,7.11,7.11,0,0,1,1.28-.41l1.53-.33h4.17a2.63,2.63,0,0,1,.71.5.77.77,0,0,1,.28.45v10a5.83,5.83,0,0,1-1.59.51.94.94,0,0,0-.47.52,5.55,5.55,0,0,0-.35.86c0,.15-.06.28-.08.41a3.84,3.84,0,0,1-.13.41,7.9,7.9,0,0,0-.09.82c0,.4-.07,1-.13,1.64a2.16,2.16,0,0,0,0,.51V70.7a2.86,2.86,0,0,0,0,.56,8.7,8.7,0,0,0,.35,2.59,2.42,2.42,0,0,0,.21.37,5.6,5.6,0,0,1,.3.49,3.71,3.71,0,0,0,.71.82,4.3,4.3,0,0,0,.65.45l.45.22c.12,0,.17.11.17.19v10c0,.06-.05.12-.15.19a3.62,3.62,0,0,1-.32.22,3.33,3.33,0,0,1-.52.24h-4.65c-.14,0-.9-.19-2.28-.56A11.26,11.26,0,0,1,194,84.86a11.38,11.38,0,0,1-2.73-2.72,12.86,12.86,0,0,1-1.75-3.47,12.72,12.72,0,0,1-.62-4c0-1.81,0-3.34,0-4.61s0-2.41,0-3.44,0-1.75,0-2.14,0-.61,0-.67v-.38A12.61,12.61,0,0,1,189.47,59.55Zm34.92,15.16a12.78,12.78,0,0,1-.62,3.94A12.61,12.61,0,0,1,222,82.14a11.79,11.79,0,0,1-2.74,2.72,10.9,10.9,0,0,1-3.53,1.66l-1.66.43a5.19,5.19,0,0,1-.67.13h-4.61a1.75,1.75,0,0,1-.56-.24c-.28-.16-.43-.3-.43-.41v-10c0-.11,0-.19.11-.21l.28-.09a2.65,2.65,0,0,0,.41-.15,1.68,1.68,0,0,0,.5-.37,4.29,4.29,0,0,0,.66-.88q.33-.54.54-.84a8.1,8.1,0,0,0,.3-2.59,2.75,2.75,0,0,0,.05-.56V67.47a2.05,2.05,0,0,0-.05-.51c0-.66,0-1.2-.08-1.62a3.31,3.31,0,0,0-.13-.84c-.06-.26-.14-.57-.24-1a3.5,3.5,0,0,0-.36-.9.42.42,0,0,0-.28-.3,2.64,2.64,0,0,0-.52-.13l-.58-.07a1.44,1.44,0,0,1-.48-.1.43.43,0,0,1-.13-.26v-10c0-.11.1-.26.28-.45a3,3,0,0,1,.71-.5H213l1.53.33a6.8,6.8,0,0,1,1.27.41,12.23,12.23,0,0,1,3.45,1.76A12.71,12.71,0,0,1,222,56.08a13.12,13.12,0,0,1,1.78,3.45,12,12,0,0,1,.65,3.94Z"/><path class="cls-1" d="M228.5,51.62a4,4,0,0,1,.8-.78h9.82a5,5,0,0,1,1,.72,4.08,4.08,0,0,1,.82.92V86.69c0,.08-.12.17-.36.26l-.41.13H229a1.05,1.05,0,0,1-.71-.37,1,1,0,0,1-.37-.71V52.91A5.18,5.18,0,0,1,228.5,51.62Zm14.95,35.05c-.24-.13-.36-.25-.36-.37V75.83a.44.44,0,0,1,.23-.36,2.2,2.2,0,0,1,.56-.24,5.44,5.44,0,0,1,.63-.13l.39,0h7.88a2.23,2.23,0,0,1,1.31.34,1.23,1.23,0,0,1,.5,1.08V86.3a.48.48,0,0,1-.19.37,1.33,1.33,0,0,1-.46.23,3,3,0,0,1-.54.13,2.92,2.92,0,0,1-.45,0h-8.48l-.22-.07A.84.84,0,0,0,244,87Z"/><path class="cls-1" d="M278,71.74l-.47-.48H265.27c-.51-.34-1.07-.68-1.68-1s-1.16-.69-1.68-1a6.92,6.92,0,0,1-1.42-1.4,11.76,11.76,0,0,1-1.21-1.92,15,15,0,0,1-.84-2.07,6.56,6.56,0,0,1-.32-1.89,10.29,10.29,0,0,1,1.77-5.3,12,12,0,0,1,4.31-3.79c.54-.26,1.2-.53,2-.82.37-.15.73-.27,1.08-.39a9.51,9.51,0,0,1,1.12-.3c.4-.09.86-.17,1.37-.24l1.86-.24h3.14V66.35h10.3a7.8,7.8,0,0,1,2.71.93,13.84,13.84,0,0,1,2.82,2,12.78,12.78,0,0,1,2.2,2.5,4.63,4.63,0,0,1,.88,2.54V78c-.05.23-.1.44-.15.64s-.08.42-.11.65a9.28,9.28,0,0,1-.3,1.25,5.08,5.08,0,0,1-.73,1.63,6.91,6.91,0,0,1-3,2.57,30.43,30.43,0,0,1-4.09,1.48c-.84.23-1.67.43-2.5.61a13,13,0,0,1-2.59.26h-.77l-.26,0L278.8,87a1.53,1.53,0,0,1-.67-.37.56.56,0,0,1-.15-.32Zm-19.86,3a3,3,0,0,1,0-.34c0-.14.07-.29.11-.45a1.21,1.21,0,0,1,.2-.41.34.34,0,0,1,.3-.17h12.49a.82.82,0,0,1,.65.21,5,5,0,0,1,.39.65,4.43,4.43,0,0,0,1.12,1.38,2.14,2.14,0,0,0,.79.32c.33.07.64.13.93.17s.52.09.71.13.24.11.15.19v10c0,.06-.05.12-.15.19a2.84,2.84,0,0,1-.34.22l-.35.17-.19.07h-5l-.67-.07a15.61,15.61,0,0,1-5.58-2.09,12.32,12.32,0,0,1-2.95-2.76,12.77,12.77,0,0,1-1.92-3.49A11.36,11.36,0,0,1,258.12,74.75Zm18.44-23.91h4.57a13.59,13.59,0,0,1,2.45.78A18.15,18.15,0,0,1,286,52.74a10.59,10.59,0,0,1,1.48,1.08,13.18,13.18,0,0,1,2,1.83,9.81,9.81,0,0,1,1.43,2,6.35,6.35,0,0,1,.58.88,6.5,6.5,0,0,1,.28.76v4.48H281A5.73,5.73,0,0,0,279.92,62a5.39,5.39,0,0,0-1.16-.82,1.8,1.8,0,0,0-.63-.24l-.71-.13a2,2,0,0,1-.6-.19.45.45,0,0,1-.26-.43Z"/></g></g></svg>