<svg id="576ad81b-12d3-42cc-b6dd-88a9a6a69c45" data-name="Layer 1" xmlns="http://www.w3.org/2000/svg" viewBox="0 0 298.89 298.79"><defs><style>.\32 21e244a-42e6-4730-a387-82db1cf8682e{fill:#d1d3d4;}.\32 21e244a-42e6-4730-a387-82db1cf8682e,.\38 a03cdac-9de1-4e11-9875-0b9ef6722126{stroke:#58595b;stroke-miterlimit:10;}.\38 a03cdac-9de1-4e11-9875-0b9ef6722126{fill:#f37021;stroke-width:0.5px;}</style></defs><title>logo-mini</title><path class="221e244a-42e6-4730-a387-82db1cf8682e" d="M2,162.68l12.46,8.93a24.25,24.25,0,0,0-8.1-46.23c3.84-22,25-60.44,25-60.44l5.34-10.29L38.5,68.56A24.22,24.22,0,0,0,66.13,30.83c17-12,58.32-25,58.32-25l11-4-7.39,10.62a24.25,24.25,0,0,0,22.68,15.91A24.35,24.35,0,0,0,175,6c22.23,3.68,62.78,25.72,62.78,25.72l10.5,4.91L231,39.67a24.25,24.25,0,0,0,38.71,25.21c12.74,17.65,26.22,61.82,26.22,61.82L299,137.84l-12.31-10.13a24.28,24.28,0,0,0,8.87,46.05C292,196.14,271,235.65,271,235.65l-5.8,10-1.29-14.86a24.25,24.25,0,0,0-27.44,38.68c-17,12.28-58.76,25.81-58.76,25.81L166.6,298.7l7.25-9.21a24.22,24.22,0,0,0-47.22,5.65c-22.65-3.78-63.51-26.49-63.51-26.49L53,262.78l17-1.5A24.31,24.31,0,0,0,31,235.16c-12.62-18-25.14-61.4-25.14-61.4Z" transform="translate(-1.01 -0.85)"/><path class="8a03cdac-9de1-4e11-9875-0b9ef6722126" d="M48.81,124.89V95.7a10.53,10.53,0,0,1,2.31-2.06H78.5l23.67,35.49h1.13l23.42-35.49h27.14a11.47,11.47,0,0,1,2.55,2.06v54.91a11.74,11.74,0,0,1-.71,3.26,4.13,4.13,0,0,1-1.13,1.69,5.37,5.37,0,0,1-1.57.83l-1.72.64H126L102.81,190.8,79.42,157H54l-1.81-.64a5.47,5.47,0,0,1-1.47-.83,4.13,4.13,0,0,1-1.17-1.75,14.86,14.86,0,0,1-.71-3.07ZM80.43,201l-1.29.77H52.68a4.43,4.43,0,0,1-2.45-1,2.75,2.75,0,0,1-1.42-2.18V167.62a3.45,3.45,0,0,1,.25-.83,12.62,12.62,0,0,1,.71-1.23,5,5,0,0,1,1-1,1.79,1.79,0,0,1,1.1-.46H78.25l.65.18a2.11,2.11,0,0,0,.64.22c.34.34.89.8,1.6,1.41s1,.92,1,1v32c0,.34-.28.74-.83,1.17S80.43,200.84,80.43,201Zm44.36,0c0-.15-.28-.46-.83-.89s-.83-.83-.83-1.17V166.79a7.31,7.31,0,0,1,1-1c.65-.58,1.17-1.08,1.6-1.41a2.17,2.17,0,0,0,.65-.22L127,164h26.49a1.46,1.46,0,0,1,.89.46,5,5,0,0,1,1,1.07,13.23,13.23,0,0,1,.77,1.23,2,2,0,0,1,.31.83v31a2.76,2.76,0,0,1-1.41,2.18,4.47,4.47,0,0,1-2.43,1H126.08Z" transform="translate(-1.01 -0.85)"/><path class="8a03cdac-9de1-4e11-9875-0b9ef6722126" d="M164.27,124.89V98.15a3.84,3.84,0,0,1,.64-2.05c.43-.68,1-1.51,1.66-2.46h64A17.7,17.7,0,0,0,232.54,96a1.22,1.22,0,0,1,.49.83v101.7a2.55,2.55,0,0,1-1.72,2.37,7.19,7.19,0,0,1-2.76.83h-35a3.08,3.08,0,0,1-2.33-1.14,3.67,3.67,0,0,1-1-2.45V131.46a5.25,5.25,0,0,0-.34-1.35,4.52,4.52,0,0,0-1.72-2h-22c-.43,0-.86-.33-1.29-1A4,4,0,0,1,164.27,124.89ZM239.48,128c-.86,0-1.29-.46-1.29-1.14V96.34c0-.34.89-1.23,2.7-2.7h18.63a3.34,3.34,0,0,1,2.18,1.1A3.08,3.08,0,0,1,262.93,97v28.24a3.75,3.75,0,0,1-2.18,2.52,7.43,7.43,0,0,1-2.46.58H240.64A4,4,0,0,1,239.48,128Z" transform="translate(-1.01 -0.85)"/></svg>