<svg xmlns="http://www.w3.org/2000/svg" viewBox="0 0 298.89 298.79"><defs><style>.befd812c-9a42-474f-93d1-f003d56da0c6{fill:#d1d3d4;stroke:#58595b;stroke-miterlimit:10;}.d622d01d-3771-494b-9ec4-1e18696c2c24{fill:red;}.\35 7402598-f6d8-48a7-8478-ad5bbcf807cd{fill:#f37021;}</style></defs><title>Asset 1</title><g id="615e2068-6da2-4a11-98f8-7f6a0a4c7256" data-name="Layer 2"><g id="dd2f1488-1cda-447a-abc4-f78f91cf47f2" data-name="Layer 1"><path class="befd812c-9a42-474f-93d1-f003d56da0c6" d="M1,161.83l12.46,8.93a24.25,24.25,0,0,0-8.1-46.23c3.83-22,25-60.44,25-60.44L35.64,53.8l1.85,13.91A24.22,24.22,0,0,0,65.11,30c17-12,58.33-25,58.33-25l11.05-4-7.4,10.63a24.28,24.28,0,0,0,22.69,15.9A24.35,24.35,0,0,0,174,5.12c22.22,3.68,62.78,25.72,62.78,25.72l10.49,4.91L230,38.82A24.25,24.25,0,0,0,268.7,64c12.74,17.65,26.22,61.82,26.22,61.82L298,137l-12.31-10.13a24.28,24.28,0,0,0,8.87,46.05C291,195.29,270,234.8,270,234.8l-5.8,10L262.9,230a24.25,24.25,0,0,0-27.44,38.68c-17,12.28-58.76,25.81-58.76,25.81l-11.11,3.38,7.24-9.21a24.22,24.22,0,0,0-47.21,5.65C103,290.51,62.11,267.8,62.11,267.8L52,261.93l17-1.5A24.3,24.3,0,0,0,30,234.31c-12.62-18-25.15-61.4-25.15-61.4Z"/><path class="d622d01d-3771-494b-9ec4-1e18696c2c24" d="M254.52,147.24q0,44.58-30.73,76t-74.3,31.43q-43.58,0-74.31-31.43t-30.73-76q0-44.57,30.73-76T149.49,39.8q43.57,0,74.3,31.44T254.52,147.24ZM201,215.19,83.06,94.54q-17.61,24.54-17.6,52.7,0,35.58,24.62,60.76t59.27,25.19Q177.73,233.19,201,215.19ZM98,79.29l118,120.65q17.6-24.39,17.6-52.84,0-35.58-24.56-60.69T149.63,61.29Q122,61.29,98,79.29Z"/><path class="57402598-f6d8-48a7-8478-ad5bbcf807cd" d="M257.52,146.24q0,44.58-30.73,76t-74.3,31.43q-43.58,0-74.31-31.43t-30.73-76q0-44.57,30.73-76T152.49,38.8q43.57,0,74.3,31.44T257.52,146.24ZM204,214.19,86.06,93.54q-17.61,24.54-17.6,52.7,0,35.58,24.62,60.76t59.27,25.19Q180.73,232.19,204,214.19ZM101,78.29l118,120.65q17.6-24.39,17.6-52.84,0-35.58-24.56-60.69T152.63,60.29Q125,60.29,101,78.29Z"/></g></g></svg>