<svg id="Layer_1" data-name="Layer 1" xmlns="http://www.w3.org/2000/svg" viewBox="0 0 354.78 354.58"><defs><style>.cls-1{fill:#d1d3d4;stroke:#58595b;stroke-miterlimit:10;stroke-width:4px;}</style></defs><title>disk for spinner</title><path class="cls-1" d="M29.83,206.82,44.4,217.25a28.35,28.35,0,0,0-9.45-54c4.45-25.72,29.13-70.58,29.13-70.58l6.25-12,2.15,16.25a28.3,28.3,0,0,0,32.36-44.08c19.87-14.07,68.24-29.18,68.24-29.18L185.81,19l-8.64,12.35A28.29,28.29,0,0,0,232,23.76c26,4.32,73.32,30.07,73.32,30.07l12.28,5.73-20.19,3.56a28.3,28.3,0,0,0,45.21,29.42c14.88,20.61,30.62,72.21,30.62,72.21l3.75,13L362.42,166a28.36,28.36,0,0,0,10.35,53.83C368.6,246,344,292.14,344,292.14l-6.77,11.74-1.53-17.37a28.34,28.34,0,0,0-32.07,45.18C283.81,346,235,361.83,235,361.83l-13,3.94L230.52,355a28.32,28.32,0,0,0-55.17,6.6c-26.44-4.4-74.18-30.94-74.18-30.94l-11.73-6.78,19.92-1.74A28.4,28.4,0,0,0,63.7,291.36C49,270.48,34.33,219.6,34.33,219.6Z" transform="translate(-25.85 -14.95)"/></svg>