<svg id="Layer_1" data-name="Layer 1" xmlns="http://www.w3.org/2000/svg" viewBox="0 0 320.61 162.38"><defs><style>.cls-1{fill:#f37021;stroke:#58595b;stroke-miterlimit:10;stroke-width:0.5px;}</style></defs><title>TEXT for spinner</title><path class="cls-1" d="M39.89,161.76V118.12c0-.26,1.15-1.28,3.46-3.08H84.3l35.38,53.07h1.53L156.4,115H197c2.57,1.8,3.85,2.82,3.85,3.08v82.09a19.73,19.73,0,0,1-1.06,4.91,6.28,6.28,0,0,1-1.73,2.5,6.84,6.84,0,0,1-2.31,1.25,23,23,0,0,0-2.59,1H155.24l-34.6,50.56-35-50.56H47.58c-1-.39-1.93-.71-2.69-1a7.27,7.27,0,0,1-2.22-1.25,6.26,6.26,0,0,1-1.73-2.6,20.48,20.48,0,0,1-1-4.81ZM87.18,275.58c-.25.13-.89.51-1.92,1.15H45.65A6.63,6.63,0,0,1,42,275.2c-1.41-1-2.11-2.12-2.11-3.27V225.59a3.57,3.57,0,0,1,.38-1.25,11.46,11.46,0,0,1,1.06-1.82,7.54,7.54,0,0,1,1.54-1.64,2.74,2.74,0,0,1,1.63-.67H83.92a4.54,4.54,0,0,1,1,.29,4.22,4.22,0,0,0,1,.29c.51.51,1.31,1.22,2.4,2.11s1.57,1.41,1.44,1.54V272.5c0,.52-.41,1.1-1.25,1.74S87.18,275.33,87.18,275.58Zm66.33,0c0-.25-.41-.7-1.25-1.34S151,273,151,272.5V224.44c0-.13.48-.64,1.45-1.54s1.76-1.6,2.4-2.11a4.22,4.22,0,0,0,1-.29,4.22,4.22,0,0,1,1-.29h39.61a2.24,2.24,0,0,1,1.34.67,9.8,9.8,0,0,1,1.45,1.64c.44.64.83,1.25,1.15,1.82a3.16,3.16,0,0,1,.48,1.25v46.34c0,1.15-.71,2.24-2.12,3.27a6.6,6.6,0,0,1-3.65,1.53h-39.6C154.41,276.09,153.77,275.71,153.51,275.58Z" transform="translate(-39.64 -114.6)"/><path class="cls-1" d="M212.54,161.76v-40a5.66,5.66,0,0,1,1-3.07q1-1.55,2.5-3.66h95.74a26.77,26.77,0,0,0,2.89,3.56,1.82,1.82,0,0,1,.77,1.25V271.93q0,2.31-2.6,3.55a10.22,10.22,0,0,1-4.13,1.25h-52.3a4.53,4.53,0,0,1-3.46-1.73,5.41,5.41,0,0,1-1.54-3.65V171.57a7.63,7.63,0,0,0-.48-2,6.7,6.7,0,0,0-2.59-3H215.42q-1,0-1.92-1.44A5.87,5.87,0,0,1,212.54,161.76ZM325,166.38c-1.28-.13-1.92-.71-1.92-1.73V119.08q0-.77,4-4l27.88-.19a5,5,0,0,1,3.27,1.63A4.88,4.88,0,0,1,360,120v42.3a5.57,5.57,0,0,1-3.27,3.75,11.36,11.36,0,0,1-3.65.86H326.74A5.62,5.62,0,0,1,325,166.38Z" transform="translate(-39.64 -114.6)"/></svg>